<?xml version="1.0" standalone="no"?>
<!DOCTYPE svg PUBLIC "-//W3C//DTD SVG 20010904//EN"
 "http://www.w3.org/TR/2001/REC-SVG-20010904/DTD/svg10.dtd">
<svg version="1.0" xmlns="http://www.w3.org/2000/svg"
 width="64.000000pt" height="64.000000pt" viewBox="0 0 64.000000 64.000000"
 preserveAspectRatio="xMidYMid meet">

<g transform="translate(0.000000,64.000000) scale(0.100000,-0.100000)"
fill="#000000" stroke="none">
<path d="M226 584 c-70 -22 -149 -103 -170 -174 -9 -30 -16 -62 -16 -71 0 -10
-9 -19 -19 -21 -18 -3 -17 -6 10 -38 l29 -35 29 35 c27 32 28 35 10 38 -42 7
-11 101 56 167 95 96 220 101 320 13 42 -37 65 -42 65 -14 0 18 -49 61 -100
86 -57 29 -149 35 -214 14z"/>
<path d="M546 355 c-26 -33 -26 -35 -7 -35 45 0 13 -99 -54 -165 -95 -96 -220
-101 -320 -13 -42 37 -65 42 -65 14 0 -18 48 -60 100 -87 66 -35 176 -33 245
3 82 43 137 118 151 207 5 32 11 41 26 41 17 0 17 3 -8 35 -14 19 -30 35 -34
35 -4 0 -20 -16 -34 -35z"/>
</g>
</svg>
