<?xml version="1.0" standalone="no"?>
<!DOCTYPE svg PUBLIC "-//W3C//DTD SVG 20010904//EN"
 "http://www.w3.org/TR/2001/REC-SVG-20010904/DTD/svg10.dtd">
<svg version="1.0" xmlns="http://www.w3.org/2000/svg"
 width="512.000000pt" height="512.000000pt" viewBox="0 0 512.000000 512.000000"
 preserveAspectRatio="xMidYMid meet">
<metadata>
Created by potrace 1.16, written by Peter Selinger 2001-2019
</metadata>
<g transform="translate(0.000000,512.000000) scale(0.100000,-0.100000)"
fill="#000000" stroke="none">
<path d="M2710 3753 l0 -928 -260 260 -260 260 -127 -128 -128 -127 483 -482
482 -483 480 480 480 480 -130 130 -130 130 -260 -260 -260 -260 0 928 0 927
-185 0 -185 0 0 -927z"/>
<path d="M420 3795 l0 -185 285 0 285 0 7 -27 c3 -16 122 -489 263 -1053 l256
-1025 195 -3 194 -3 -67 -23 c-371 -125 -478 -608 -197 -884 201 -197 524
-202 732 -12 306 280 192 780 -208 906 -33 10 94 13 730 13 637 0 763 -3 729
-13 -170 -54 -308 -194 -361 -368 -23 -77 -21 -225 6 -309 119 -376 603 -493
885 -213 202 200 209 526 16 737 -62 68 -134 115 -220 144 l-65 22 196 1 196
0 208 935 c114 515 208 943 209 952 1 14 -30 24 -164 54 -91 21 -170 38 -175
39 -6 0 -92 -364 -190 -810 l-180 -810 -1091 0 -1092 0 -264 1058 -264 1057
-427 3 -427 2 0 -185z m1668 -2669 c90 -47 120 -152 68 -240 -28 -48 -90 -86
-141 -86 -45 0 -114 39 -140 79 -57 87 -33 185 60 242 36 23 114 25 153 5z
m1771 -7 c75 -42 107 -125 77 -203 -54 -142 -241 -151 -312 -15 -28 54 -15
140 29 188 49 53 141 67 206 30z"/>
</g>
</svg>
