<?xml version="1.0" encoding="UTF-8" standalone="no"?>
<!DOCTYPE svg PUBLIC "-//W3C//DTD SVG 20010904//EN" "http://www.w3.org/TR/2001/REC-SVG-20010904/DTD/svg10.dtd">
<svg version="1.0" xmlns="http://www.w3.org/2000/svg" width="1080.000000pt" height="1080.000000pt" viewBox="0 0 1080.000000 1080.000000" preserveAspectRatio="xMidYMid meet">

<g transform="translate(0.000000,1080.000000) scale(0.100000,-0.100000)" fill="#000000" stroke="none">
<path d="M4960 9044 c-180 -20 -335 -49 -520 -94 -223 -55 -506 -161 -725 -273 -353 -179 -629 -381 -916 -667 -279 -279 -477 -545 -649 -875 -54 -103 -101 -207 -160 -350 -23 -55 -69 -187 -85 -240 -9 -33 -21 -71 -25 -85 -5 -14 -18 -65 -30 -115 -11 -49 -25 -106 -30 -125 -39 -154 -80 -538 -80 -749 0 -293 53 -680 134 -975 32 -114 108 -331 157 -446 42 -98 177 -359 224 -431 25 -38 45 -72 45 -75 0 -4 30 -50 67 -103 358 -516 847 -938 1393 -1203 317 -154 568 -236 935 -307 54 -11 158 -25 297 -41 114 -14 573 -14 686 0 176 21 259 32 332 47 41 9 86 18 100 20 102 21 406 110 485 142 356 147 566 259 813 435 251 178 537 446 726 681 214 267 406 596 531 910 26 66 51 129 55 140 5 11 13 36 19 55 6 19 19 62 30 95 75 231 151 660 151 854 0 111 -59 181 -153 181 -101 0 -167 -71 -167 -179 0 -46 -11 -152 -31 -286 -36 -245 -132 -590 -215 -773 -13 -29 -24 -55 -24 -58 0 -3 -31 -68 -69 -143 -201 -404 -488 -766 -842 -1060 -122 -101 -159 -129 -304 -225 -223 -148 -486 -276 -740 -361 -70 -24 -288 -83 -350 -95 -33 -6 -78 -15 -100 -20 -41 -9 -136 -23 -284 -40 -109 -13 -503 -13 -612 0 -518 61 -892 178 -1301 405 -87 49 -307 193 -366 239 -429 342 -718 688 -942 1131 -48 94 -92 184 -98 200 -6 17 -21 55 -33 85 -59 156 -121 351 -139 445 -4 22 -13 65 -19 95 -71 335 -87 708 -47 1035 22 175 31 223 78 425 57 247 202 605 344 850 246 424 620 816 1045 1093 153 100 286 172 469 255 144 65 389 147 540 182 313 71 441 85 780 85 299 -1 392 -8 610 -51 206 -40 429 -105 595 -174 11 -5 40 -17 65 -27 119 -47 470 -234 470 -249 0 -5 -238 -301 -297 -369 -24 -27 -43 -53 -43 -57 0 -11 84 -10 172 1 40 6 125 15 188 21 198 19 312 30 395 40 44 5 114 12 157 15 107 9 108 11 98 120 -9 82 -46 452 -70 685 -6 52 -13 125 -17 162 -4 50 -9 66 -18 60 -7 -4 -88 -99 -179 -212 -92 -113 -170 -206 -174 -208 -4 -1 -61 30 -126 68 -248 148 -599 301 -841 365 -33 9 -82 22 -110 30 -130 35 -324 69 -512 89 -175 20 -578 19 -743 0z"/>
<path d="M4395 7311 c-16 -10 -37 -27 -46 -37 -9 -10 -171 -246 -359 -522 -210 -309 -346 -518 -351 -540 -13 -55 -11 -2448 1 -2494 7 -23 26 -50 52 -73 l42 -35 1591 0 c1759 0 1629 -5 1677 63 l23 32 0 1265 0 1265 -361 529 c-283 416 -368 533 -394 548 -33 17 -81 18 -940 18 -864 0 -906 -1 -935 -19z m1934 -625 c122 -178 221 -329 221 -335 0 -8 -339 -11 -1221 -11 -973 0 -1220 3 -1217 13 2 6 102 157 223 335 l219 322 778 0 777 0 220 -324z m365 -672 c14 -6 16 -107 16 -1044 0 -937 -2 -1038 -16 -1044 -9 -3 -624 -6 -1368 -6 -1038 0 -1355 3 -1364 12 -16 16 -18 2039 -2 2069 11 19 36 19 1365 19 744 0 1360 -3 1369 -6z"/>
</g>
</svg>